<svg width="196" height="155" viewBox="0 0 196 155" fill="none" xmlns="http://www.w3.org/2000/svg">
<circle cx="3.5" cy="4.07324" r="3.5" fill="#FAC016"/>
<circle cx="24.5" cy="4.07324" r="3.5" fill="#FAC016"/>
<circle cx="45.5" cy="4.07324" r="3.5" fill="#FAC016"/>
<circle cx="66.5" cy="4.07324" r="3.5" fill="#FAC016"/>
<circle cx="87.5" cy="4.07324" r="3.5" fill="#FAC016"/>
<circle cx="108.5" cy="4.07324" r="3.5" fill="#FAC016"/>
<circle cx="129.5" cy="4.07324" r="3.5" fill="#FAC016"/>
<circle cx="150.5" cy="4.07324" r="3.5" fill="#FAC016"/>
<circle cx="171.5" cy="4.07324" r="3.5" fill="#FAC016"/>
<circle cx="192.5" cy="4.07324" r="3.5" fill="#FAC016"/>
<circle cx="3.5" cy="25.0732" r="3.5" fill="#FAC016"/>
<circle cx="24.5" cy="25.0732" r="3.5" fill="#FAC016"/>
<circle cx="45.5" cy="25.0732" r="3.5" fill="#FAC016"/>
<circle cx="66.5" cy="25.0732" r="3.5" fill="#FAC016"/>
<circle cx="87.5" cy="25.0732" r="3.5" fill="#FAC016"/>
<circle cx="108.5" cy="25.0732" r="3.5" fill="#FAC016"/>
<circle cx="129.5" cy="25.0732" r="3.5" fill="#FAC016"/>
<circle cx="150.5" cy="25.0732" r="3.5" fill="#FAC016"/>
<circle cx="171.5" cy="25.0732" r="3.5" fill="#FAC016"/>
<circle cx="192.5" cy="25.0732" r="3.5" fill="#FAC016"/>
<circle cx="3.5" cy="46.0732" r="3.5" fill="#FAC016"/>
<circle cx="24.5" cy="46.0732" r="3.5" fill="#FAC016"/>
<circle cx="45.5" cy="46.0732" r="3.5" fill="#FAC016"/>
<circle cx="66.5" cy="46.0732" r="3.5" fill="#FAC016"/>
<circle cx="87.5" cy="46.0732" r="3.5" fill="#FAC016"/>
<circle cx="108.5" cy="46.0732" r="3.5" fill="#FAC016"/>
<circle cx="129.5" cy="46.0732" r="3.5" fill="#FAC016"/>
<circle cx="150.5" cy="46.0732" r="3.5" fill="#FAC016"/>
<circle cx="171.5" cy="46.0732" r="3.5" fill="#FAC016"/>
<circle cx="192.5" cy="46.0732" r="3.5" fill="#FAC016"/>
<circle cx="3.5" cy="67.0732" r="3.5" fill="#FAC016"/>
<circle cx="24.5" cy="67.0732" r="3.5" fill="#FAC016"/>
<circle cx="45.5" cy="67.0732" r="3.5" fill="#FAC016"/>
<circle cx="66.5" cy="67.0732" r="3.5" fill="#FAC016"/>
<circle cx="87.5" cy="67.0732" r="3.5" fill="#FAC016"/>
<circle cx="108.5" cy="67.0732" r="3.5" fill="#FAC016"/>
<circle cx="129.5" cy="67.0732" r="3.5" fill="#FAC016"/>
<circle cx="150.5" cy="67.0732" r="3.5" fill="#FAC016"/>
<circle cx="171.5" cy="67.0732" r="3.5" fill="#FAC016"/>
<circle cx="192.5" cy="67.0732" r="3.5" fill="#FAC016"/>
<circle cx="3.5" cy="88.0732" r="3.5" fill="#FAC016"/>
<circle cx="24.5" cy="88.0732" r="3.5" fill="#FAC016"/>
<circle cx="45.5" cy="88.0732" r="3.5" fill="#FAC016"/>
<circle cx="66.5" cy="88.0732" r="3.5" fill="#FAC016"/>
<circle cx="87.5" cy="88.0732" r="3.5" fill="#FAC016"/>
<circle cx="108.5" cy="88.0732" r="3.5" fill="#FAC016"/>
<circle cx="129.5" cy="88.0732" r="3.5" fill="#FAC016"/>
<circle cx="150.5" cy="88.0732" r="3.5" fill="#FAC016"/>
<circle cx="171.5" cy="88.0732" r="3.5" fill="#FAC016"/>
<circle cx="192.5" cy="88.0732" r="3.5" fill="#FAC016"/>
<circle cx="3.5" cy="109.073" r="3.5" fill="#FAC016"/>
<circle cx="24.5" cy="109.073" r="3.5" fill="#FAC016"/>
<circle cx="45.5" cy="109.073" r="3.5" fill="#FAC016"/>
<circle cx="66.5" cy="109.073" r="3.5" fill="#FAC016"/>
<circle cx="87.5" cy="109.073" r="3.5" fill="#FAC016"/>
<circle cx="108.5" cy="109.073" r="3.5" fill="#FAC016"/>
<circle cx="129.5" cy="109.073" r="3.5" fill="#FAC016"/>
<circle cx="150.5" cy="109.073" r="3.5" fill="#FAC016"/>
<circle cx="171.5" cy="109.073" r="3.5" fill="#FAC016"/>
<circle cx="192.5" cy="109.073" r="3.5" fill="#FAC016"/>
<circle cx="3.5" cy="130.073" r="3.5" fill="#FAC016"/>
<circle cx="24.5" cy="130.073" r="3.5" fill="#FAC016"/>
<circle cx="45.5" cy="130.073" r="3.5" fill="#FAC016"/>
<circle cx="66.5" cy="130.073" r="3.5" fill="#FAC016"/>
<circle cx="87.5" cy="130.073" r="3.5" fill="#FAC016"/>
<circle cx="108.5" cy="130.073" r="3.5" fill="#FAC016"/>
<circle cx="129.5" cy="130.073" r="3.5" fill="#FAC016"/>
<circle cx="150.5" cy="130.073" r="3.5" fill="#FAC016"/>
<circle cx="171.5" cy="130.073" r="3.5" fill="#FAC016"/>
<circle cx="192.5" cy="130.073" r="3.5" fill="#FAC016"/>
<circle cx="3.5" cy="130.073" r="3.5" fill="#FAC016"/>
<circle cx="24.5" cy="130.073" r="3.5" fill="#FAC016"/>
<circle cx="45.5" cy="130.073" r="3.5" fill="#FAC016"/>
<circle cx="66.5" cy="130.073" r="3.5" fill="#FAC016"/>
<circle cx="87.5" cy="130.073" r="3.5" fill="#FAC016"/>
<circle cx="108.5" cy="130.073" r="3.5" fill="#FAC016"/>
<circle cx="129.5" cy="130.073" r="3.5" fill="#FAC016"/>
<circle cx="150.5" cy="130.073" r="3.5" fill="#FAC016"/>
<circle cx="171.5" cy="130.073" r="3.5" fill="#FAC016"/>
<circle cx="192.5" cy="130.073" r="3.5" fill="#FAC016"/>
<circle cx="3.5" cy="151.073" r="3.5" fill="#FAC016"/>
<circle cx="24.5" cy="151.073" r="3.5" fill="#FAC016"/>
<circle cx="45.5" cy="151.073" r="3.5" fill="#FAC016"/>
<circle cx="66.5" cy="151.073" r="3.5" fill="#FAC016"/>
<circle cx="87.5" cy="151.073" r="3.5" fill="#FAC016"/>
<circle cx="108.5" cy="151.073" r="3.5" fill="#FAC016"/>
<circle cx="129.5" cy="151.073" r="3.5" fill="#FAC016"/>
<circle cx="150.5" cy="151.073" r="3.5" fill="#FAC016"/>
<circle cx="171.5" cy="151.073" r="3.5" fill="#FAC016"/>
<circle cx="192.5" cy="151.073" r="3.5" fill="#FAC016"/>
</svg>
