<svg width="552" height="613" viewBox="0 0 552 613" fill="none" xmlns="http://www.w3.org/2000/svg">
<path d="M85.5852 489.122C83.6791 552.885 265.285 598.248 369.45 576.779C495.102 550.936 534.63 289.232 501.444 220.161C478.3 171.968 426.643 149.077 368.308 199.219C356.871 209.047 345.161 221.674 333.381 237.445C296.266 287.137 266.499 373.814 221.965 390.383L178.412 398.01C178.412 398.01 176.944 398.444 174.344 399.401C156.661 405.591 87.222 433.527 85.5824 489.14L85.5852 489.122Z" fill="#FAC016"/>
<g style="mix-blend-mode:multiply" opacity="0.44">
<path d="M178.415 397.992L221.968 390.365C266.499 373.814 296.269 287.118 333.384 237.427C345.164 221.656 356.874 209.029 368.311 199.2C399.573 205.899 397.925 202.319 397.925 202.319C397.925 202.319 447.486 220.139 449.368 263.647C449.549 268.011 449.951 267.558 449.236 272.704C455.728 269.96 472.867 271.452 473.463 272.468C474.317 273.949 457.373 275.79 447.769 282.161C447.769 282.161 463.518 282.53 471.467 286.934C462.218 286.939 446.361 289.837 446.361 289.837C446.361 289.837 471.54 304.308 468.505 304.274C464.019 304.215 444.257 298.898 444.257 298.898C440.646 314.384 436.023 329.507 429.399 355.738C422.57 382.803 402.262 432.348 382.133 454.594C385.891 458.229 393.354 465.73 400.66 474.7C410.995 487.375 405.577 489.846 397.596 484.939C389.616 480.033 363.819 467.033 363.819 467.033C363.819 467.033 380.429 485.86 378.742 487.33C377.056 488.799 361.247 474.028 353.004 469.505L352.986 469.502C339.107 471.419 322.774 469.721 307.544 466.278C303.287 474.854 296.481 486.516 283.346 484.398C272.656 482.665 273.557 470.241 263.828 462.975C237.465 443.262 199.268 416.544 184.64 413.49C175.769 411.673 173.808 405.627 174.361 399.403C176.962 398.446 178.43 398.013 178.43 398.013L178.415 397.992Z" fill="#ABD7EF"/>
</g>
<path d="M423.057 182.524C447.489 177.817 474.578 192.09 482.181 216.293C484.906 224.987 485.891 234.201 486.234 243.277C486.699 255.454 485.955 267.7 484.609 279.795C480.872 313.214 472.612 346.107 462.482 378.116C456.113 398.261 448.868 418.12 440.947 437.708C436.709 448.15 432.298 458.528 427.664 468.797C425.256 474.158 422.44 479.306 419.133 484.174C406.784 502.273 388.245 514.861 367.968 522.563C347.69 530.265 324.068 533.807 301.588 534.65C280.295 535.44 258.935 534.079 237.814 531.316C223.371 529.435 208.943 526.985 194.749 523.631C191.712 522.914 189.387 522.346 186.666 521.605C183.043 520.63 179.459 519.403 175.913 518.164C165.187 514.431 154.677 510.032 144.587 504.831C132.486 498.595 120.628 491.16 111.052 481.391C106.797 477.051 103.227 472.21 100.386 466.837C99.8168 465.77 101.582 465.087 102.133 466.152C108.229 477.663 119.068 486.543 129.755 493.572C140.443 500.601 152.288 506.354 164.26 511.186C172.817 514.651 181.326 517.833 190.065 519.906C201.542 522.612 213.104 524.889 224.734 526.734C244.312 529.826 264.121 531.793 283.951 532.102C306.059 532.456 328.506 530.888 349.988 525.368C370.626 520.065 390.821 510.893 406.074 495.649C413.855 487.866 420.154 478.726 424.713 468.703C433.786 448.817 442.021 428.522 449.52 407.982C461.901 374.076 472.253 339.242 478.663 303.697C481.112 290.095 482.976 276.347 483.78 262.542C484.41 251.847 484.428 241.056 483.041 230.413C482.081 223.03 480.485 215.362 476.858 208.777C469.554 195.453 455.634 186.366 440.846 183.749C435.038 182.726 428.983 182.569 423.131 183.347C422.605 183.412 422.541 182.646 423.034 182.557L423.057 182.524Z" fill="#CF9500"/>
<path d="M337.768 439.053C340.936 441.986 344.569 444.199 348.207 446.486C352.433 449.142 356.732 451.681 361.064 454.132C369.847 459.091 378.68 463.965 387.239 469.295C390.73 471.467 394.264 473.719 397.442 476.359C400.62 478.998 403.208 481.877 405.725 484.966C411.839 492.495 416.818 501.026 421.15 509.695C423.518 514.44 425.861 519.347 427.518 524.405C428.955 528.745 430.475 533.024 431.259 537.539C431.366 538.146 430.348 538.411 430.205 537.798C428.111 529.424 424.743 521.423 420.908 513.698C416.552 504.951 411.532 496.561 405.581 488.818C403.071 485.564 400.379 482.41 397.331 479.644C394.283 476.877 391.11 474.792 387.796 472.667C379.549 467.349 370.929 462.638 362.502 457.643C357.733 454.809 353.044 451.821 348.475 448.65C344.557 445.913 340.887 442.772 337.395 439.548C337.105 439.281 337.496 438.789 337.783 439.074L337.768 439.053Z" fill="#CF9500"/>
<path d="M433.154 223.295C434.68 221.911 436.675 220.933 438.501 219.983C440.446 218.978 442.461 218.114 444.5 217.327C448.463 215.791 452.596 214.576 456.778 213.757C465.276 212.083 474.002 211.775 482.585 212.846C484.934 213.141 487.284 213.546 489.601 214.04C491.919 214.533 494.393 215.087 496.61 216.1C497.229 216.381 496.945 217.37 496.262 217.263C494.176 216.935 492.138 216.302 490.07 215.866C488.001 215.43 486.029 215.084 483.971 214.816C479.782 214.269 475.546 214.028 471.325 214.159C462.888 214.384 454.538 215.822 446.506 218.399C444.236 219.131 442.023 219.964 439.82 220.854C437.616 221.745 435.502 222.889 433.246 223.531C433.112 223.565 433.042 223.425 433.13 223.328L433.154 223.295Z" fill="#72B1CC"/>
<path d="M322.135 389.082C322.135 389.082 179.961 317.049 132.531 332.352C85.1016 347.655 96.4873 382.618 129.543 402.182C160.491 420.51 238.21 437.106 238.21 437.106L322.135 389.082Z" fill="#70CACD"/>
<path d="M206.398 385.098C206.398 385.098 182.482 355.197 152.244 347.367C152.244 347.367 186.197 351.13 215.46 381.945C244.705 412.756 206.416 385.1 206.416 385.1L206.398 385.098Z" fill="#3D7777"/>
<path d="M297.138 266.921C299.434 270.603 302.42 274.227 306.402 278.082C307.097 278.818 320.537 257.994 322.676 255.986C325.223 239.3 327.516 223.405 327.516 223.405C327.516 223.405 311.941 248.913 297.141 266.903L297.138 266.921Z" fill="#EF6A80"/>
<path d="M414.363 87.0714C414.363 87.0714 446.759 86.0878 450.477 143.833C453.546 166.881 451.559 178.359 470.47 193.322C489.381 208.285 526.391 240.094 498.583 276.634C484.56 292.606 475.565 302.135 476.906 318.823C478.247 335.51 458.411 380.405 395.718 353.53C333.042 326.658 315.677 327.308 282.971 306.692C189.323 247.686 271.926 171.002 301.126 158.686C330.33 146.352 346.011 136.711 353.17 117.87C360.329 99.0305 377.687 73.4336 414.363 87.0714Z" fill="#211C1D"/>
<path d="M399.228 89.3631C409.088 89.343 418.869 92.8717 426.671 98.8017C434.52 104.776 440.407 113.044 444.278 122.066C444.764 123.194 445.349 124.282 445.754 125.453L446.9 128.954C447.636 131.302 448.546 133.604 448.975 136.033L450.588 143.242L452.273 150.463C453.359 155.283 454.331 160.122 455.7 164.895C457.09 169.652 459.084 174.319 462.023 178.361C464.957 182.438 468.808 185.718 472.853 188.586C476.982 191.393 481.202 193.845 485.253 196.677C493.353 202.23 501.094 208.427 507.539 215.841C510.733 219.553 513.565 223.578 515.795 227.913C518.025 232.249 519.513 236.966 520.12 241.785C521.43 251.511 518.324 261.319 513.349 269.653L513.354 269.617C509.967 274.528 506.475 279.405 503.311 284.535C500.204 289.657 497.385 295.174 496.288 301.219C495.726 304.213 495.572 307.307 495.887 310.345C495.961 311.87 496.313 313.383 496.505 314.852C496.761 316.276 496.846 317.729 496.836 319.203C496.799 325.065 495.291 330.917 492.883 336.277C491.687 338.968 490.196 341.538 488.462 343.904C486.727 346.27 484.808 348.515 482.588 350.455C478.258 354.443 473 357.307 467.449 359.222C456.204 362.899 443.988 362.439 432.399 360.213C426.58 359.023 420.886 357.39 415.181 355.59C409.497 353.775 403.815 351.942 398.195 349.953C386.926 346.043 375.803 341.676 364.825 336.963C353.895 332.184 343.091 327.074 332.649 321.301C322.201 315.565 312.026 309.262 302.593 301.987C293.215 294.721 284.321 286.479 278.281 276.249C275.29 271.13 273.392 265.5 272.907 259.556L272.408 255.105L272.113 250.649C271.861 247.675 271.924 244.696 271.858 241.715C272.027 229.841 273.656 217.826 278.1 206.771C280.36 201.295 283.061 195.944 286.759 191.285C290.388 186.596 294.674 182.416 299.492 178.947C304.412 175.661 309.736 172.843 314.834 169.714C319.964 166.608 324.976 163.317 329.748 159.675C334.521 156.033 339.011 151.959 342.708 147.189C346.435 142.46 349.333 137.029 350.997 131.239C353.833 119.635 359.385 108.68 367.377 99.7869C371.4 95.3999 376.168 91.5542 381.759 89.3877C387.301 87.1767 393.671 87.0883 399.231 89.3451L399.228 89.3631ZM399.228 89.3631C393.695 87.0551 387.28 87.081 381.686 89.2655C376.065 91.3904 371.225 95.2248 367.148 99.6033C359.036 108.441 353.343 119.466 350.415 131.074C348.726 136.786 345.83 142.089 342.117 146.727C338.437 151.389 333.943 155.37 329.212 158.982C324.464 162.591 319.457 165.845 314.348 168.936C309.253 172.048 303.973 174.817 298.917 178.156C293.999 181.664 289.63 185.905 285.916 190.672C282.15 195.413 279.363 200.843 277.073 206.388C272.532 217.594 270.847 229.729 270.64 241.727C270.703 244.726 270.617 247.738 270.881 250.75L271.168 255.26L271.643 259.745C271.776 261.242 271.948 262.727 272.282 264.237C272.506 265.748 272.977 267.206 273.412 268.658C273.806 270.14 274.515 271.488 275.067 272.903C275.699 274.275 276.447 275.611 277.139 276.956C283.303 287.444 292.291 295.793 301.727 303.161C311.218 310.537 321.441 316.884 331.914 322.699C342.386 328.513 353.218 333.683 364.178 338.504C375.165 343.273 386.319 347.682 397.618 351.633C403.253 353.644 408.95 355.498 414.673 357.3C420.381 359.082 426.183 360.731 432.095 361.918C443.866 364.154 456.358 364.621 467.978 360.781C473.708 358.784 479.171 355.786 483.634 351.652C485.923 349.631 487.909 347.305 489.697 344.836C491.485 342.368 493.005 339.728 494.236 336.932C496.711 331.38 498.242 325.384 498.266 319.243C498.267 317.712 498.175 316.185 497.901 314.647C497.711 313.159 497.345 311.737 497.28 310.269C496.984 307.344 497.116 304.394 497.64 301.524C498.662 295.725 501.365 290.356 504.428 285.283C507.529 280.197 511.004 275.318 514.394 270.389L514.4 270.353C516.934 266.065 518.986 261.442 520.244 256.602C521.519 251.765 521.915 246.661 521.259 241.687C520.621 236.716 519.078 231.879 516.772 227.439C514.484 223.002 511.571 218.91 508.329 215.154C501.767 207.665 493.957 201.439 485.784 195.875C481.731 193.061 477.426 190.558 473.379 187.819C469.38 185.014 465.61 181.802 462.749 177.847C459.867 173.907 457.907 169.374 456.509 164.671C455.11 159.968 454.102 155.123 452.96 150.312L451.216 143.119L449.533 135.881C449.086 133.449 448.161 131.126 447.389 128.772L446.192 125.245C445.769 124.071 445.184 122.983 444.68 121.852C440.701 112.814 434.725 104.532 426.776 98.5969C418.859 92.7039 409.045 89.2625 399.174 89.3547L399.228 89.3631Z" fill="#211C1D"/>
<path d="M254.888 258.037C261.676 258.217 306.742 212.8 322.3 199.246C332.48 190.383 345.982 191.1 345.982 191.1C354.606 201.182 353.803 219.083 346.094 229.459C313.726 272.977 269.905 294.511 253.453 298.736C267.95 284.554 254.891 258.019 254.891 258.019L254.888 258.037Z" fill="#FDD7BD"/>
<path d="M288.156 230.141C287.297 235.615 289.651 247.609 291.493 254.061C292.789 258.711 294.554 262.844 297.138 266.922C299.434 270.603 302.42 274.228 306.402 278.082C307.097 278.818 320.537 257.994 322.676 255.987C322.801 255.895 322.905 255.819 322.941 255.825C324.361 255.698 325.717 255.043 326.985 254.357C329.573 253.01 332.145 251.532 334.714 250.072C336.872 248.769 339.112 247.404 340.596 245.349C342.596 242.582 343.033 238.979 343.385 235.565L351.251 188.994C340.054 187.438 329.013 190.76 320.523 198.247C318.368 200.123 316.389 202.284 314.454 204.398C306.093 213.528 296.547 221.052 288.174 230.143L288.156 230.141Z" fill="#F8798A"/>
<path d="M379.599 440.34C363.838 446.15 370.615 410.496 367.925 410.498C338.851 410.748 271.111 379.52 264.163 366.399C272.312 355.095 325.747 220.36 328.625 217.048C340.108 203.758 341.142 192.241 346.501 188.617C360.148 189.708 362.331 189.294 366.707 189.705C365.275 193.189 362.496 197.513 361.342 202.166C359.311 210.408 366.734 218.161 375.093 216.669C392.149 213.645 405.99 195.19 405.99 195.19C405.99 195.19 423.951 214.211 431.342 222.401C433.709 225.043 437.929 229.377 439.491 234.918C451.815 278.922 416.003 362.325 396.289 404.453C391.073 415.609 391.302 434.096 379.623 440.307L379.599 440.34Z" fill="#F8798A"/>
<path d="M433.887 263.098L414.669 319.309C414.669 319.309 395.727 315.928 389.204 312.063C389.204 312.063 341.013 345.475 327.291 341.346C313.551 337.215 370.753 277.743 370.753 277.743L433.887 263.098Z" fill="#EF6A80"/>
<path d="M327.829 303.422C333.737 296.305 359.758 277.954 391.904 242.538C400.972 232.541 415.227 233.156 415.227 233.156C424.738 242.399 418.525 265.889 411.112 276.497C383.188 316.469 338.196 340.882 332.289 340.489C345.403 325.02 327.847 303.425 327.847 303.425L327.829 303.422Z" fill="#FDD7BD"/>
<path d="M301.376 227.843C301.376 227.843 301.404 227.903 301.416 227.942C303.26 230.63 305.858 235.559 306.54 240.832C310.673 274.822 309.497 313.754 312.408 322.902C312.408 322.902 314.91 354.606 344.44 334.555C345.96 329.222 329.785 261.162 324.848 240.275C324.008 236.711 324.163 233.027 324.803 229.419C326.86 217.841 321.273 204.38 315.025 198.767C311.827 195.903 293.639 210.594 301.376 227.843Z" fill="#FDD7BD"/>
<path d="M433.607 225.691C433.607 225.691 446.527 238.329 434.562 261.728C430.923 268.833 411.802 311.755 411.802 311.755C411.802 311.755 387.682 307.562 378.893 299.115C360.873 281.764 361.495 270.533 361.495 270.533C361.495 270.533 371.976 261.274 379.758 253.252C384.397 248.463 374.861 248.885 374.861 248.885L394.558 218.249L433.592 225.67L433.607 225.691Z" fill="#F8798A"/>
<mask id="mask0_62_236" style="mask-type:luminance" maskUnits="userSpaceOnUse" x="264" y="188" width="179" height="253">
<path d="M303.862 275.487C301.133 272.568 298.92 269.766 297.156 266.925C294.572 262.847 292.807 258.714 291.511 254.064C289.687 247.614 287.315 235.618 288.174 230.143C296.529 221.049 306.072 213.543 314.454 204.398C316.389 202.284 318.347 200.138 320.523 198.247C327.813 191.827 336.96 188.484 346.481 188.632L346.606 188.652C348.004 188.668 349.408 188.76 350.816 188.944C360.658 189.622 362.84 189.338 366.704 189.723C365.273 193.207 362.493 197.531 361.339 202.184C359.308 210.426 366.731 218.179 375.09 216.687C392.146 213.664 405.987 195.209 405.987 195.209C405.987 195.209 423.948 214.229 431.339 222.419C433.706 225.061 437.926 229.395 439.488 234.936C451.812 278.94 416 362.343 396.286 404.471C391.07 415.627 391.299 434.114 379.62 440.325C363.859 446.135 370.636 410.481 367.946 410.483C338.872 410.733 271.132 379.505 264.183 366.384C268.775 360.019 287.702 314.576 303.886 275.454L303.862 275.487Z" fill="white"/>
</mask>
<g mask="url(#mask0_62_236)">
<path d="M365.473 237.337C362.021 236.795 362.863 231.429 366.316 231.971C369.768 232.513 368.925 237.879 365.473 237.337Z" fill="#FFB6C2"/>
<path d="M386.972 346.807C383.52 346.265 384.363 340.899 387.815 341.441C391.267 341.983 390.424 347.349 386.972 346.807Z" fill="#FFB6C2"/>
<path d="M356.302 358.745C352.85 358.203 353.693 352.837 357.145 353.379C360.597 353.921 359.754 359.287 356.302 358.745Z" fill="#FFB6C2"/>
<path d="M297.183 320.254C293.731 319.712 294.573 314.346 298.026 314.888C301.478 315.43 300.635 320.796 297.183 320.254Z" fill="#FFB6C2"/>
<path d="M340.234 201.546C336.782 201.004 337.624 195.638 341.077 196.18C344.529 196.722 343.686 202.088 340.234 201.546Z" fill="#FFB6C2"/>
<path d="M422.518 217.234C419.066 216.692 419.908 211.326 423.361 211.868C426.813 212.41 425.97 217.776 422.518 217.234Z" fill="#FFB6C2"/>
<path d="M430.648 320.915C427.196 320.373 428.039 315.007 431.491 315.549C434.943 316.091 434.1 321.457 430.648 320.915Z" fill="#FFB6C2"/>
<path d="M400.06 395.452C396.608 394.91 397.451 389.544 400.903 390.086C404.355 390.628 403.512 395.994 400.06 395.452Z" fill="#FFB6C2"/>
<path d="M308.815 348.834C305.363 348.292 306.206 342.926 309.658 343.468C313.11 344.01 312.268 349.376 308.815 348.834Z" fill="#FFB6C2"/>
<path d="M341.464 278.772C338.012 278.23 338.855 272.864 342.307 273.406C345.759 273.948 344.916 279.314 341.464 278.772Z" fill="#FFB6C2"/>
<path d="M293.872 244.545C290.42 244.003 291.262 238.637 294.714 239.179C298.167 239.721 297.324 245.087 293.872 244.545Z" fill="#FFB6C2"/>
<path d="M420.391 248.729C416.939 248.187 417.782 242.82 421.234 243.362C424.686 243.905 423.843 249.271 420.391 248.729Z" fill="#FFB6C2"/>
<path d="M411.092 292.935C407.64 292.393 408.482 287.026 411.934 287.569C415.386 288.111 414.544 293.477 411.092 292.935Z" fill="#FFB6C2"/>
</g>
<path d="M208.997 427.094L274.518 446.756C274.518 446.756 312.955 467.018 339.561 465.475C391.864 462.433 386.898 406.65 380.982 395.869C356.701 351.629 294.749 342.086 294.749 342.086L209.015 427.097L208.997 427.094Z" fill="#70CACD"/>
<path d="M120.968 528.13C120.968 528.13 142.034 511.419 135.022 498.343C128.011 485.267 116.475 489.046 107.466 494.791C98.4607 500.517 60.3355 522.152 79.5001 543.244L120.965 528.148L120.968 528.13Z" fill="#D35974"/>
<path d="M153.557 474.406C153.557 474.406 146.274 480.662 140.833 483.516C139.207 484.368 130.038 487.264 124.911 489.762C119.462 492.43 117.931 494.791 112.125 497.976C105.167 501.81 99.2994 505.501 97.7708 507.844C93.427 514.506 109.104 529.182 114.098 529.874C117.813 530.384 132.524 513.431 135.504 511.703C138.989 509.685 142.629 506.216 147.912 501.437C157.706 492.568 171.759 487.782 171.759 487.782" fill="#FDD7BD"/>
<path d="M112.872 525.364C112.872 525.364 99.2561 516.805 102.212 503.965C102.212 503.965 85.7262 514.034 79.2789 523.65C72.8496 533.268 76.7554 548.402 92.9791 550.913C106.809 553.066 121.713 527.49 121.713 527.49C121.713 527.49 118.233 528.881 112.872 525.364Z" fill="#F8798A"/>
<path d="M199.439 423.434L230.312 411.141C230.312 411.141 238.963 416.946 245.185 419.325C247.653 420.266 251.448 421.324 255.464 422.618C258.46 422.425 263.752 422.517 269.462 424.872C278.148 428.45 275.837 429.674 281.368 438.218C286.898 446.762 300.744 447.755 304.622 454.97C308.5 462.184 296.289 481.172 285.195 479.43C279.262 478.498 279.009 471.189 276.223 467.578C273.437 463.967 249.26 446.166 249.26 446.166C246.554 444.394 243.56 442.226 239.813 439.571C228.127 431.278 199.439 423.434 199.439 423.434Z" fill="#FDD7BD"/>
<g style="mix-blend-mode:multiply" opacity="0.48">
<path d="M311.859 406.067C254.402 480.887 155.397 500.933 155.397 500.933C155.397 500.933 257.726 414.191 299.244 391.484C313.756 383.541 319.802 395.727 311.859 406.067Z" fill="#89A5AF"/>
</g>
<path d="M150.799 504.639C146.089 506.243 133.58 484.886 133.073 480.138C133.073 480.138 162.558 452.165 171.835 444.12C199.285 420.31 227.851 387.395 253.415 361.63C265.895 349.031 283.3 335.453 302.31 344.62C317.895 352.141 325.099 372.314 321.638 387.085C318.176 401.856 306.975 412.293 295.731 421.598C295.731 421.598 212.241 483.639 150.796 504.657L150.799 504.639Z" fill="#70CACD"/>
<path d="M321.737 208.586C321.737 208.586 316.276 196.196 314.502 192.006C312.728 187.816 308.009 182.204 306.588 181.981C305.168 181.758 304.924 184.838 306.386 187.964C307.848 191.09 310.752 202.746 310.752 202.746L321.737 208.586Z" fill="#FDD7BD"/>
<path d="M38.8681 498.245C38.8681 498.245 62.4931 494.685 68.5706 497.632C74.6482 500.579 77.5641 510.871 69.6973 517.09C61.8124 523.306 36.5402 524.098 26.4179 523.21C10.5725 521.81 0.63588 507.537 7.15207 502.176C13.6654 496.833 37.779 498.258 37.779 498.258" fill="#D35974"/>
<path d="M48.1574 490.828C51.5976 494.967 52.2054 509.399 49.0726 518.907C49.0726 518.907 35.5458 521.045 23.9448 519.131C3.89081 514.968 2.4835 494.598 15.8736 491.571C29.2636 488.544 40.9552 488.59 40.9552 488.59C40.9552 488.59 45.773 487.945 48.1602 490.81L48.1574 490.828Z" fill="#F8798A"/>
<path d="M366.722 189.725C362.78 193.829 356.133 213.045 364.922 217.027C372.32 220.366 398.313 211.697 405.966 195.223C405.218 194.589 404.593 193.993 404.082 193.377C402.321 191.219 401.884 188.954 401.962 185.055C402.051 179.681 403.132 174.205 403.132 174.205C403.132 174.205 375.69 171.446 375.671 171.922C375.686 173.936 375.668 179.099 372.902 185.566C371.85 188.039 369.456 189.675 366.776 189.733L366.74 189.728L366.722 189.725Z" fill="#FDD7BD"/>
<path d="M467.292 101.748C469.348 102.385 471.625 102.318 473.732 102.04C475.913 101.755 478.126 101.272 480.007 100.091C481.337 99.2485 482.372 97.935 482.043 96.2781C481.402 92.9669 477.225 93.0492 474.765 93.9359C475.453 92.0144 475.703 90.19 474.869 88.3432C474.163 86.7378 472.689 85.9159 470.961 86.0135C468.359 86.1584 467.039 88.8112 466.485 91.049C465.83 93.6954 465.988 96.5617 466.569 99.1991C466.747 100.057 466.998 100.927 467.272 101.763" fill="#E82D48"/>
<path d="M347.03 57.715C348.464 56.095 349.36 54.0216 349.976 51.978C350.618 49.8831 351.115 47.6548 350.817 45.4492C350.62 43.8868 349.84 42.399 348.209 41.9952C344.925 41.2028 343.272 45.0394 343.048 47.6427C341.595 46.2153 340.054 45.2353 338.013 45.21C336.266 45.1939 334.913 46.1808 334.273 47.7962C333.319 50.2297 335.187 52.5341 336.971 53.9583C339.099 55.6578 341.772 56.7049 344.408 57.2848C345.262 57.4743 346.143 57.6127 347.033 57.697" fill="#E82D48"/>
<path d="M267.006 124.002L291.228 130.648C293.836 131.363 295.369 134.061 294.654 136.672L279.826 190.782C279.111 193.393 276.416 194.93 273.809 194.215L249.587 187.569C246.98 186.853 245.446 184.156 246.162 181.544L260.989 127.435C261.705 124.823 264.399 123.286 267.006 124.002Z" fill="#E86D74"/>
<path d="M246.561 166.282C243.722 174.858 243.876 184.44 243.939 186.738C243.963 186.816 243.955 186.87 243.967 186.909C243.966 187.148 243.983 187.28 243.983 187.28C244.215 189.088 244.476 191.177 244.02 193.615C237.371 229.971 232.849 271.44 233.116 282.645C233.396 294.24 241.099 303.143 253.468 298.757C263.418 295.227 267.866 284.264 267.866 284.264C267.295 258.804 259.836 188.865 259.944 188.292C271.918 177.035 267.502 163.628 261.722 155.968C260.077 153.772 258.389 153.728 256.914 153.737C256.914 153.737 249.856 156.448 246.597 166.287L246.561 166.282Z" fill="#FDD7BD"/>
<path d="M251.253 157.996L258.914 147.685C258.914 147.685 268.208 135.196 270.561 136.635C271.958 137.482 271.452 138.823 269.631 141.858C269.631 141.858 267.55 145.37 265.831 148.107C269.07 145.313 276.213 139.479 277.776 140.905C278.983 142.017 278.24 143.229 275.876 145.847C275.876 145.847 273.907 148.065 271.951 150.194C275.43 147.4 279.866 144.259 281.075 145.353C282.283 146.465 281.54 147.677 279.176 150.295C279.176 150.295 273.447 156.739 271.826 158.145C271.25 158.645 270.421 160.175 269.569 161.96C271.066 160.406 274.152 157.182 275.732 156.267C277.414 155.295 279.243 155.73 278.945 157.51C278.665 159.293 272.872 164.509 271.688 166.888C270.504 169.266 264.907 181.912 264.907 181.912L266.211 168.795L264.323 161.93C263.609 163.663 263.091 164.966 263.091 164.966L261.494 159.18C261.044 161.341 260.737 163.064 260.737 163.064L251.222 157.954L251.253 157.996Z" fill="#FDD7BD"/>
<path d="M425.058 161.873C422.439 164.119 419.23 165.663 415.831 166.31C415.26 166.423 414.677 166.498 414.138 166.764C413.539 167.057 413.071 167.574 412.591 168.052C405.372 175.425 394.174 178.925 384.229 176.201C376.087 173.963 369.225 167.331 366.74 159.339C366.188 157.574 365.848 155.749 365.754 153.889C365.746 153.703 365.738 153.518 365.731 153.332C365.679 151.663 365.814 149.987 366.017 148.34C366.108 147.524 366.236 146.713 366.363 145.903C366.558 144.661 366.75 143.436 366.94 142.23C367.774 136.918 367.206 131.496 367.987 126.175C369.084 118.598 372.947 109.37 380.92 106.932C385.605 105.491 389.888 106.957 394.507 107.7C397.329 108.143 400.171 107.649 402.872 108.866C407.481 110.955 410.544 115.385 410.949 120.43C411.244 124.185 409.077 127.425 408.212 130.942C407.306 134.601 408.81 138.398 411.113 141.213C411.56 141.764 416.052 146.952 416.656 145.922C418.429 142.842 422.925 142.017 425.984 143.77C429.059 145.544 430.596 149.365 430.206 152.902C429.819 156.421 427.733 159.617 425.049 161.927L425.058 161.873Z" fill="#FDD7BD"/>
<path d="M376.047 140.431C375.636 142.341 374.536 143.367 373.486 143.129C372.434 142.908 371.841 141.523 372.233 139.611C372.643 137.701 373.716 136.855 374.765 137.093C375.818 137.314 376.457 138.521 376.047 140.431Z" fill="#6C1712"/>
<path d="M391.937 132.04C393.602 131.176 395.573 130.71 397.442 130.653C401.223 130.509 404.457 132.327 406.419 135.55C406.903 136.346 405.407 137.07 404.969 136.337C404.018 134.767 402.758 133.407 401.049 132.677C399.808 132.132 398.436 131.953 397.078 132.035C395.998 132.105 394.95 132.328 393.939 132.668C393.357 132.853 393.241 132.89 392.719 133.159C391.856 133.614 390.957 132.532 391.937 132.04Z" fill="#6C1712"/>
<path d="M378.641 130.248C378.547 130.141 378.752 130.357 378.689 130.292C378.626 130.227 378.577 130.182 378.514 130.117C378.288 129.915 378.061 129.714 377.832 129.53C377.142 128.998 376.363 128.562 375.543 128.267C372.7 127.248 370.04 128.584 367.994 130.587C367.341 131.223 366.078 130.471 366.861 129.708C368.886 127.72 371.465 126.316 374.376 126.552C376.14 126.7 377.822 127.481 379.197 128.582C379.523 128.855 379.848 129.127 380.13 129.448C380.74 130.135 379.242 130.877 378.679 130.235L378.641 130.248Z" fill="#6C1712"/>
<path d="M398.113 143.158C397.697 145.104 396.555 146.161 395.487 145.919C394.417 145.696 393.794 144.27 394.21 142.324C394.626 140.378 395.719 139.516 396.807 139.743C397.878 139.966 398.529 141.212 398.113 143.158Z" fill="#6C1712"/>
<path d="M384.056 163.221C387.095 163.348 391.648 159.579 390.442 156.346C390.325 156.032 390.152 155.728 389.884 155.557C389.55 155.338 389.128 155.327 388.724 155.319C387.195 155.319 385.66 155.355 384.121 155.298C380.002 155.131 377.505 154.609 377.429 156.387C377.352 158.165 379.917 163.07 384.038 163.219L384.056 163.221Z" fill="#FCFCFC"/>
<path d="M398.45 152.16C398.377 153.68 400.781 155.035 403.816 155.179C406.852 155.324 409.385 154.209 409.458 152.689C409.531 151.169 407.128 149.813 404.092 149.669C401.056 149.524 398.523 150.64 398.45 152.16Z" fill="#F9C5AC"/>
<path d="M367.555 153.563C366.914 153.536 366.321 153.443 365.772 153.302C365.721 151.633 365.855 149.957 366.058 148.31C366.605 148.229 367.2 148.194 367.82 148.236C370.637 148.364 372.864 149.673 372.778 151.155C372.693 152.636 370.369 153.71 367.552 153.581L367.555 153.563Z" fill="#F9C5AC"/>
<path d="M413.982 158.492C414.643 156.271 416.085 154.246 418.459 153.678C419.435 153.444 420.489 153.536 421.318 154.127C422.08 154.671 422.585 155.562 422.417 156.514C422.09 158.363 419.601 159.78 417.997 158.495C416.134 156.985 417.134 154.374 418.136 152.686C419.412 150.543 421.341 148.817 423.575 147.728C423.775 147.631 424.347 147.388 424.503 147.69C424.658 147.991 424.143 148.334 423.944 148.432C422.588 149.086 421.394 150.006 420.435 151.184C419.476 152.362 418.488 153.96 418.443 155.539C418.435 156.294 418.699 157.074 419.305 157.557C419.764 157.924 420.352 158.164 420.682 157.588C421.448 156.232 420.117 154.732 418.752 154.628C416.841 154.476 415.892 156.652 415.451 158.169C415.303 158.644 413.778 159.198 413.982 158.492Z" fill="#F4A398"/>
<path d="M384.765 141.579C384.403 142.943 383.843 144.165 383.063 145.26C382.304 146.34 381.389 147.359 380.406 148.219L379.916 148.641L380.437 148.962C380.972 149.305 381.568 149.62 382.098 149.998C382.363 150.187 382.628 150.376 382.872 150.581C383.096 150.8 383.355 151.026 383.394 151.364C383.505 151.012 383.304 150.649 383.128 150.363C382.936 150.056 382.721 149.782 382.483 149.542C381.988 149.058 381.492 148.574 380.926 148.19L380.957 148.933C382.179 148.073 383.142 146.988 383.875 145.72C384.25 145.096 384.488 144.395 384.671 143.704C384.871 143.016 384.861 142.258 384.804 141.566L384.765 141.579Z" fill="#E2928F"/>
<path d="M385.066 176.388C385.066 176.388 396.408 178.777 403.498 174.337" stroke="#F2C09E" stroke-width="0.31" stroke-miterlimit="10"/>
<path d="M364.694 122.153L381.272 124.756C381.272 124.756 382.085 114.533 385.009 111.634C384.217 119.019 383.505 123.557 384.22 125.219C388.189 125.99 395.489 126.435 395.489 126.435C395.489 126.435 396.215 114.888 399.827 113.591C399.224 116.726 397.99 127.4 397.99 127.4L419.474 130.552C419.474 130.552 431.193 106.136 411.606 94.4252C397.037 85.7166 368.488 85.2007 364.676 122.15L364.694 122.153Z" fill="#211C1D"/>
<path d="M380.354 426.62C378.406 421.074 375.473 415.816 371.61 411.316C367.769 406.801 363.171 402.998 358.334 399.655C353.524 396.262 348.499 393.185 343.903 389.603C339.4 386.017 335.152 381.623 329.626 379.15C326.913 377.894 323.81 377.241 320.791 377.578C317.738 377.893 314.962 379.265 312.496 380.889C310.007 382.546 307.819 384.509 305.566 386.424C303.33 388.343 301.127 390.285 298.937 392.266C290.218 400.159 281.562 408.118 272.752 415.886C268.313 419.747 263.817 423.506 259.179 427.114C254.556 430.742 249.76 434.067 244.919 437.44L216.01 457.643C206.324 464.296 196.596 470.869 186.644 477.111C176.679 483.314 166.463 489.127 155.991 494.457C155.952 494.47 155.943 494.524 155.976 494.547C155.989 494.586 156.025 494.592 156.066 494.561C166.752 489.634 177.09 483.987 187.175 477.951C197.264 471.896 207.149 465.496 216.822 458.804C226.541 452.175 236.077 445.295 245.656 438.496C255.359 431.846 264.531 424.356 273.233 416.46C282.033 408.635 290.387 400.37 299.261 392.667C301.464 390.725 303.696 388.825 305.962 386.948C308.226 385.089 310.446 383.15 312.885 381.577C315.304 380.02 318.004 378.783 320.839 378.564C323.679 378.309 326.522 378.977 329.11 380.213C331.721 381.417 334.109 383.102 336.367 384.914C338.625 386.726 340.753 388.776 343.143 390.572C347.868 394.156 352.943 397.148 357.767 400.452C362.615 403.723 367.194 407.412 371.055 411.801C374.92 416.172 378.072 421.206 380.196 426.687C380.208 426.726 380.244 426.732 380.283 426.719C380.321 426.707 380.327 426.671 380.315 426.632L380.354 426.62Z" fill="#FCFCFC"/>
<path d="M245.614 108.14C246.643 106.512 247.134 104.56 247.395 102.663C247.664 100.713 247.778 98.701 247.21 96.8036C246.811 95.4679 245.914 94.2569 244.441 94.1363C241.438 93.9045 240.519 97.5244 240.69 99.8391C239.214 98.7955 237.712 98.1537 235.922 98.4077C234.374 98.6444 233.325 99.6974 232.994 101.214C232.491 103.478 234.462 105.245 236.236 106.262C238.351 107.461 240.846 108 243.238 108.136C244.022 108.186 244.815 108.181 245.596 108.138" fill="#E82D48"/>
</svg>
