<svg width="187" height="55" viewBox="0 0 187 55" fill="none" xmlns="http://www.w3.org/2000/svg">
<path d="M28.2662 0.578613C29.1707 0.828146 30.0441 1.10887 30.8863 1.45198C34.2861 2.94917 33.5064 6.38024 31.4165 8.03339C29.3267 9.68654 27.0185 9.99846 24.6168 10.3728C21.4664 10.8406 18.2849 11.1837 15.1033 11.7764C14.0428 11.9947 13.0135 12.4314 12.1401 13.0864C11.3915 13.6167 11.2044 14.6772 11.7347 15.4258C12.0154 15.8001 12.4209 16.0496 12.8887 16.112C14.7602 16.3927 16.6629 16.3615 18.5344 16.0184C21.3105 15.3322 24.0241 14.49 26.7066 13.4607C31.3541 11.8076 35.9081 9.74893 41.0235 9.90488C43.5812 9.99846 46.0766 10.4039 48.1352 12.0571C51.036 14.4277 51.7222 17.5468 50.7553 21.0714C49.7883 24.5961 47.3554 26.9978 44.3298 28.8381C40.2437 31.2087 35.6898 32.6123 30.9798 32.893C28.4845 33.1114 25.9892 33.5169 23.5251 34.0471C21.4976 34.5462 19.5949 35.4508 17.973 36.7296C17.8482 36.8544 17.661 36.8856 17.5051 36.8544C18.1601 35.7003 18.8151 34.5462 19.4078 33.3609C20.0004 32.1756 20.5931 30.8344 21.1233 29.5556C21.2481 29.2748 21.2793 28.9629 21.2169 28.651C21.0921 28.1831 20.9362 27.4657 20.6242 27.341C20.094 27.1538 19.5014 27.2474 19.0023 27.5593C18.4408 28.0896 18.0042 28.7446 17.7546 29.4932C17.1932 30.9904 16.7565 32.5187 16.4446 34.0471C15.8207 37.4782 14.0116 40.2542 12.1401 43.0615C11.2668 44.278 10.487 45.5256 9.76958 46.8357C9.42648 47.5843 9.27052 48.3952 9.3329 49.2062C9.42648 49.7053 9.76958 50.142 10.2375 50.3291C10.7677 50.4227 11.298 50.2355 11.6723 49.8612C12.2337 49.0503 12.6704 48.1457 12.9511 47.21C14.9786 40.535 19.3454 36.5113 26.2075 35.17C27.1433 34.9829 28.1102 34.8893 29.0772 34.7645C29.3891 34.7333 29.6698 34.7333 29.9817 34.7645C29.7634 35.9498 29.6698 37.0727 29.3891 38.1332C28.3597 42.0634 26.3011 45.6504 23.4627 48.5824C19.1582 53.0116 13.9804 55.2574 7.77332 54.1345C3.56246 53.3859 1.03595 50.7034 0.724032 46.243C0.224968 38.913 3.09459 32.9242 8.42835 28.0584C11.5475 25.1263 15.6024 23.4108 19.8756 23.2549C22.9636 23.1301 26.114 23.3796 28.3598 25.7814C29.6698 27.2162 31.0734 26.4988 32.3835 26.3428C34.1926 26.0933 36.0017 25.6878 37.7484 25.1575C40.4933 24.3778 43.1134 23.3484 45.2968 21.4458C46.3261 20.6972 46.9187 19.5119 46.9499 18.233C46.9499 16.8294 46.2949 15.7377 44.8913 15.4882C43.2693 15.1139 41.585 14.9579 39.9006 15.0203C34.8164 15.3322 29.9193 16.7358 25.0534 18.1394C22.2774 18.9504 19.4702 19.6366 16.6005 20.1045C13.7309 20.51 10.8613 20.7595 7.96047 20.8531C5.80826 21.0091 3.65604 20.4476 1.84693 19.2312C-0.118139 17.8275 -0.586013 15.1139 0.786416 13.1176C1.00476 12.8057 1.25429 12.525 1.5662 12.2754C3.46889 10.8406 5.68349 9.93607 8.05405 9.65535C12.5144 8.90675 17.006 8.43888 21.4352 7.6279C23.3067 7.2536 25.147 6.62977 26.8626 5.75641C29.0148 4.6959 29.4515 2.8556 28.2662 0.578613ZM92.4272 33.3609C91.8969 34.6086 91.4603 35.6691 90.9612 36.6984C90.3686 37.9149 89.0897 38.6635 87.7173 38.5075C84.255 38.3516 81.9156 40.0359 80.4808 43.0615C80.1377 43.7789 79.9506 44.5899 79.8882 45.3697C79.7322 47.2723 80.668 48.2393 82.6019 48.2081C84.3798 48.1145 86.1265 47.5843 87.6549 46.6797C90.5245 45.2761 92.9263 43.0615 94.5482 40.3166C95.2344 39.069 95.8271 37.7589 96.3573 36.4177C97.6674 33.1738 98.9774 29.8987 100.287 26.6547C100.755 25.1575 102.19 24.1906 103.719 24.2842C105.185 24.3154 106.619 24.2842 108.241 24.2842C106.307 28.9941 104.436 33.4857 102.596 38.0396L102.72 38.102C103.687 37.2599 104.623 36.3553 105.59 35.5443C107.212 34.1095 109.208 33.1738 111.36 32.9242C112.047 32.8619 112.733 32.9242 113.388 33.0802C114.448 33.2985 115.166 34.2967 115.01 35.3884C114.854 36.8232 114.511 38.258 114.043 39.6304C113.326 41.6891 112.359 43.6541 111.61 45.6816C111.423 46.2118 111.454 46.8045 111.735 47.3035C112.203 47.6466 112.764 47.8026 113.326 47.6778C115.415 47.3035 116.85 45.8999 118.129 44.3715C119.72 42.3441 120.967 40.0671 121.81 37.603C122.34 36.2929 122.714 34.9205 123.931 34.0783C124.336 33.7352 124.804 33.5169 125.334 33.4233C126.956 33.3297 128.578 33.4233 130.325 33.4233C129.857 34.6398 129.42 35.7939 128.953 36.9479C127.798 39.8176 126.613 42.7184 125.459 45.588C125.365 45.7751 125.303 45.9935 125.272 46.2118C125.085 47.3659 125.646 48.0521 126.8 47.7714C127.767 47.5531 128.672 47.1476 129.514 46.5861C132.228 44.7458 133.974 42.0945 135.253 39.1313C137 35.2012 138.622 31.1151 140.369 27.1226C140.992 25.3759 142.646 24.253 144.517 24.2842C145.765 24.2842 147.012 24.2842 148.447 24.2842C147.979 25.4695 147.605 26.4988 147.168 27.4969C145.079 32.6123 142.958 37.7277 140.868 42.8743C140.337 44.0908 139.901 45.3697 139.589 46.6485C139.495 47.3347 139.651 48.0521 140.088 48.6136C140.587 49.2686 141.46 49.0503 142.053 48.676C143.02 48.1145 143.893 47.4595 144.673 46.6485C145.89 45.2761 146.732 43.5917 147.106 41.7514C147.605 39.5057 147.699 37.3222 145.328 35.7627C145.734 35.0141 146.201 34.3279 146.701 33.6416C147.012 33.4233 147.418 33.3297 147.792 33.4545C149.726 34.0471 151.629 34.7333 153.531 35.3572C156.619 36.4801 160.051 36.2617 162.951 34.7022C165.509 33.3297 168.16 32.3628 171.155 32.7371C172.652 32.8307 174.087 33.5169 175.085 34.6398C175.366 34.8893 175.771 35.0141 176.145 34.9829C180.169 34.6086 183.912 33.5169 187 30.3353C186.969 30.8344 186.938 31.1151 186.906 31.3647C186.189 34.9517 183.85 37.0727 180.45 37.9773C178.142 38.6323 175.771 38.9442 173.432 39.4121C171.467 39.7552 169.595 40.4726 167.88 41.5019C167.817 41.5331 167.724 41.5019 167.536 41.5019C168.098 40.5038 168.659 39.568 169.096 38.6011C169.47 37.8525 169.751 37.0727 169.907 36.2305C169.969 35.8562 169.657 35.1076 169.377 35.0141C168.909 34.9205 168.41 35.0765 168.067 35.4196C167.443 36.5113 166.944 37.6965 166.632 38.913C166.039 41.5643 164.854 44.0284 163.17 46.1806C162.577 47.054 162.078 47.9897 161.672 48.9567C161.298 49.4869 161.454 50.2355 161.984 50.6098C162.047 50.641 162.109 50.6722 162.172 50.7034C162.702 51.0153 163.357 50.8282 163.669 50.2979C163.7 50.2355 163.731 50.2043 163.731 50.142C164.105 49.2998 164.386 48.4264 164.76 47.5531C166.507 43.6541 169.657 41.5643 173.744 40.7845C174.243 40.6909 174.742 40.6285 175.366 40.5038C175.147 42.4065 174.555 44.2468 173.619 45.8999C172.34 48.364 170.375 50.4227 167.911 51.7327C165.104 53.1675 162.203 53.6978 159.208 52.3566C157.087 51.3896 156.339 49.4246 156.214 47.3035C155.996 44.2156 156.869 41.1276 158.678 38.6011C158.74 38.4763 158.803 38.3516 158.834 38.1956L153.937 38.8506C153.687 39.9111 153.5 41.0964 153.157 42.2505C151.847 46.4302 148.977 49.331 145.235 51.3584C142.802 52.6685 140.026 53.2299 137.281 52.9492C134.286 52.6685 132.415 50.641 132.415 47.6466V46.8045C131.042 47.9897 129.795 49.1126 128.485 50.142C126.395 51.7639 124.087 52.9492 121.373 53.1052C118.659 53.2611 116.944 52.3254 117.38 49.1126C117.412 48.7383 117.474 48.3328 117.505 48.0209C115.727 49.2686 114.012 50.6098 112.171 51.7327C110.394 52.8556 108.273 53.3235 106.183 53.0428C104.249 52.7932 103.313 51.7327 103.594 49.7989C103.875 48.3017 104.311 46.8357 104.873 45.432C105.434 43.8725 106.12 42.3753 106.744 40.8469C106.994 40.1919 107.306 39.3185 106.619 38.9754C105.933 38.7259 105.185 38.7259 104.53 39.0378C103.687 39.4433 102.97 40.0671 102.471 40.8469C101.067 43.1551 99.8508 45.5568 98.5719 47.9274C98.0105 49.175 97.3555 50.4227 96.6069 51.5768C96.0454 52.2006 95.2656 52.5749 94.4547 52.6685C92.8327 52.7621 91.2419 52.7932 89.62 52.6997C90.4621 50.5786 91.2731 48.5512 92.0841 46.5549L91.9593 46.4925C90.6805 47.4907 89.464 48.5512 88.154 49.4557C84.6605 51.8887 80.8863 53.3547 76.5195 52.9492C74.3049 52.8868 72.5582 51.0465 72.5894 48.8007C72.4022 43.0303 75.1159 38.8194 79.7322 35.6691C82.3523 33.9224 85.4715 33.0802 88.5906 33.2361C89.8383 33.4233 91.0236 33.3609 92.4272 33.3609ZM88.9337 24.3778C88.0604 26.1245 87.7485 27.9648 86.2513 29.2124C85.3467 29.8987 84.2238 30.2106 83.1009 30.117C80.8239 30.117 78.547 30.1482 76.27 30.117C75.5526 30.0234 74.8664 30.4913 74.7104 31.1775C72.8701 35.7627 70.9674 40.379 69.0647 44.9642C68.2226 46.9916 67.4116 49.0503 66.6006 51.1089C66.2887 52.1694 65.2906 52.8556 64.1988 52.8244H57.867L67.0373 30.273C66.663 30.2106 66.2887 30.1482 65.9144 30.117C64.0741 30.117 62.2338 30.117 60.3935 30.117C60.2999 30.117 60.2063 30.117 60.1128 30.117C59.0834 30.2418 58.0541 30.4913 57.711 31.583C57.3367 32.6747 58.0853 33.4545 58.8651 34.1407C59.177 34.4214 59.5201 34.671 59.9256 34.9205L56.089 41.034C54.6854 40.0671 53.5001 38.8506 52.6268 37.4158C52.2525 36.8232 51.9718 36.137 51.6598 35.5131C50.6617 33.5481 51.2855 31.8949 52.7204 30.4289C54.9973 28.1519 57.711 26.4052 60.7054 25.2199C62.5457 24.5025 64.4796 24.1906 66.4446 24.253C73.5251 24.253 80.6056 24.253 87.6861 24.253C88.0292 24.3154 88.4035 24.3466 88.9337 24.3778ZM124.679 30.5537C125.646 28.5886 125.896 26.4364 127.674 25.064C128.048 24.7521 128.516 24.5337 128.984 24.4401C130.606 24.3778 132.259 24.4401 134.068 24.4401C133.101 26.4988 132.945 28.9005 130.699 30.117C130.325 30.3353 129.919 30.4913 129.483 30.5225C127.954 30.5537 126.395 30.5537 124.679 30.5537Z" fill="#151515"/>
</svg>
