<svg width="19" height="19" viewBox="0 0 19 19" fill="none" xmlns="http://www.w3.org/2000/svg">
<path d="M5.51678 0.945801H13.0733C15.9519 0.945801 18.2909 3.28472 18.2909 6.16338V13.7199C18.2909 15.1037 17.7412 16.4308 16.7627 17.4093C15.7842 18.3878 14.4571 18.9375 13.0733 18.9375H5.51678C2.63811 18.9375 0.299194 16.5986 0.299194 13.7199V6.16338C0.299194 4.7796 0.848903 3.45248 1.82739 2.474C2.80588 1.49551 4.13299 0.945801 5.51678 0.945801ZM5.33686 2.74497C4.47796 2.74497 3.65423 3.08617 3.0469 3.6935C2.43956 4.30084 2.09836 5.12456 2.09836 5.98347V13.8998C2.09836 15.69 3.54669 17.1383 5.33686 17.1383H13.2532C14.1121 17.1383 14.9358 16.7971 15.5432 16.1898C16.1505 15.5824 16.4917 14.7587 16.4917 13.8998V5.98347C16.4917 4.1933 15.0434 2.74497 13.2532 2.74497H5.33686ZM14.0178 4.09434C14.3161 4.09434 14.6021 4.21281 14.813 4.42369C15.0238 4.63458 15.1423 4.92059 15.1423 5.21882C15.1423 5.51705 15.0238 5.80307 14.813 6.01395C14.6021 6.22483 14.3161 6.3433 14.0178 6.3433C13.7196 6.3433 13.4336 6.22483 13.2227 6.01395C13.0118 5.80307 12.8934 5.51705 12.8934 5.21882C12.8934 4.92059 13.0118 4.63458 13.2227 4.42369C13.4336 4.21281 13.7196 4.09434 14.0178 4.09434ZM9.29503 5.44372C10.4879 5.44372 11.632 5.9176 12.4755 6.76113C13.3191 7.60465 13.7929 8.74871 13.7929 9.94163C13.7929 11.1346 13.3191 12.2786 12.4755 13.1221C11.632 13.9657 10.4879 14.4396 9.29503 14.4396C8.10211 14.4396 6.95804 13.9657 6.11452 13.1221C5.271 12.2786 4.79711 11.1346 4.79711 9.94163C4.79711 8.74871 5.271 7.60465 6.11452 6.76113C6.95804 5.9176 8.10211 5.44372 9.29503 5.44372ZM9.29503 7.24288C8.57928 7.24288 7.89284 7.52722 7.38672 8.03333C6.88061 8.53944 6.59628 9.22588 6.59628 9.94163C6.59628 10.6574 6.88061 11.3438 7.38672 11.8499C7.89284 12.3561 8.57928 12.6404 9.29503 12.6404C10.0108 12.6404 10.6972 12.3561 11.2033 11.8499C11.7094 11.3438 11.9938 10.6574 11.9938 9.94163C11.9938 9.22588 11.7094 8.53944 11.2033 8.03333C10.6972 7.52722 10.0108 7.24288 9.29503 7.24288Z" fill="white"/>
</svg>
