<svg width="31" height="37" viewBox="0 0 31 37" fill="none" xmlns="http://www.w3.org/2000/svg">
<path d="M23.235 25.3848L23.5283 25.6798L23.8241 25.3848C25.2886 23.9203 27.663 23.9203 29.1275 25.3848C30.592 26.8493 30.592 29.2236 29.1275 30.6881L23.5296 36.286L17.9316 30.6881C16.4671 29.2236 16.4671 26.8493 17.9316 25.3848C19.3961 23.9203 21.7705 23.9203 23.235 25.3848ZM13.5 22.6198V25.9531C7.97711 25.9531 3.49996 30.4303 3.49996 35.9531H0.166626C0.166626 28.7283 5.91303 22.8456 13.0846 22.6261L13.5 22.6198ZM13.5 0.953125C19.025 0.953125 23.5 5.42812 23.5 10.9531C23.5 16.3526 19.2261 20.7491 13.875 20.9463L13.5 20.9531C7.97496 20.9531 3.49996 16.4781 3.49996 10.9531C3.49996 5.55369 7.77386 1.15708 13.125 0.960025L13.5 0.953125ZM13.5 4.28646C9.81591 4.28646 6.83329 7.26907 6.83329 10.9531C6.83329 14.6372 9.81591 17.6198 13.5 17.6198C17.184 17.6198 20.1666 14.6372 20.1666 10.9531C20.1666 7.26907 17.184 4.28646 13.5 4.28646Z" fill="#FAC016"/>
</svg>
