<svg width="31" height="34" viewBox="0 0 31 34" fill="none" xmlns="http://www.w3.org/2000/svg">
<path d="M8.83333 3.45345C8.83333 5.2944 7.34095 6.78678 5.5 6.78678C3.65905 6.78678 2.16667 5.2944 2.16667 3.45345C2.16667 1.6125 3.65905 0.120117 5.5 0.120117C7.34095 0.120117 8.83333 1.6125 8.83333 3.45345ZM3.83333 23.4535V33.4535H0.5V13.4535C0.5 10.692 2.73858 8.45345 5.5 8.45345C6.86765 8.45345 8.10705 9.00255 9.00975 9.89233L12.9672 13.6296L16.8218 9.77493L19.1788 12.132L13.0335 18.2773L10.5 15.8846V33.4535H7.16667V23.4535H3.83333ZM5.5 11.7868C4.57953 11.7868 3.83333 12.533 3.83333 13.4535V20.1201H7.16667V13.4535C7.16667 12.533 6.42047 11.7868 5.5 11.7868ZM27.1667 5.12012H12.1667V1.78678H28.8333C29.7538 1.78678 30.5 2.53298 30.5 3.45345V21.7868C30.5 22.7073 29.7538 23.4535 28.8333 23.4535H23.1263L27.8322 33.4535H24.1482L19.4423 23.4535H12.1667V20.1201H27.1667V5.12012Z" fill="#FAC016"/>
</svg>
