<svg width="31" height="32" viewBox="0 0 31 32" fill="none" xmlns="http://www.w3.org/2000/svg">
<path d="M27.1667 28.4533V13.1178L15.5 3.91449L3.83333 13.1178V28.4533H27.1667ZM30.5 30.12C30.5 31.0405 29.7538 31.7866 28.8333 31.7866H2.16667C1.2462 31.7866 0.5 31.0405 0.5 30.12V12.3098C0.5 11.7995 0.733783 11.3173 1.13442 11.0012L14.4678 0.483137C15.073 0.00562084 15.927 0.00562084 16.5322 0.483137L29.8655 11.0012C30.2662 11.3173 30.5 11.7995 30.5 12.3098V30.12ZM7.16667 16.7866H10.5C10.5 19.5481 12.7385 21.7866 15.5 21.7866C18.2615 21.7866 20.5 19.5481 20.5 16.7866H23.8333C23.8333 21.389 20.1023 25.12 15.5 25.12C10.8976 25.12 7.16667 21.389 7.16667 16.7866Z" fill="#FAC016"/>
</svg>
