<svg width="19" height="19" viewBox="0 0 19 19" fill="none" xmlns="http://www.w3.org/2000/svg">
<path d="M9.33095 0.945854C4.41923 0.945854 0.416083 4.949 0.416083 9.86072C0.416083 11.435 0.829891 12.9643 1.60353 14.3137L0.344116 18.9375L5.06693 17.6961C6.37132 18.4068 7.83764 18.7846 9.33095 18.7846C14.2427 18.7846 18.2458 14.7814 18.2458 9.86972C18.2458 7.48583 17.3193 5.24586 15.637 3.56364C14.8123 2.73056 13.8299 2.07003 12.7472 1.62059C11.6646 1.17114 10.5032 0.941771 9.33095 0.945854ZM9.33995 2.44816C11.319 2.44816 13.1722 3.2218 14.5755 4.62515C15.2643 5.31365 15.8103 6.13134 16.1823 7.03132C16.5544 7.9313 16.7451 8.89587 16.7435 9.86972C16.7435 13.9538 13.4151 17.2733 9.33095 17.2733C7.99957 17.2733 6.69517 16.9225 5.5617 16.2388L5.29182 16.0858L2.48512 16.8235L3.23178 14.0888L3.05186 13.8009C2.30875 12.6212 1.9157 11.2549 1.91839 9.86072C1.92738 5.77662 5.24684 2.44816 9.33995 2.44816ZM6.17342 5.74063C6.02948 5.74063 5.78659 5.79461 5.57969 6.0195C5.38178 6.2444 4.79705 6.79315 4.79705 7.88164C4.79705 8.97913 5.59768 10.0316 5.69664 10.1846C5.82258 10.3375 7.2799 12.5865 9.51987 13.54C10.0506 13.7829 10.4644 13.9178 10.7883 14.0168C11.319 14.1877 11.8048 14.1607 12.1916 14.1068C12.6234 14.0438 13.505 13.567 13.6939 13.0452C13.8828 12.5235 13.8828 12.0827 13.8289 11.9837C13.7659 11.8938 13.622 11.8398 13.3971 11.7409C13.1722 11.6149 12.0747 11.0752 11.8768 11.0032C11.6699 10.9312 11.5439 10.8952 11.373 11.1111C11.2291 11.336 10.7973 11.8398 10.6713 11.9837C10.5364 12.1367 10.4105 12.1547 10.1946 12.0467C9.96066 11.9298 9.24099 11.6959 8.39539 10.9402C7.72969 10.3465 7.2889 9.61784 7.15396 9.39294C7.04601 9.17704 7.14497 9.0421 7.25292 8.94315C7.35187 8.8442 7.4958 8.68227 7.58576 8.54733C7.70271 8.42139 7.73869 8.32244 7.81066 8.1785C7.88262 8.02557 7.84664 7.89963 7.79267 7.79168C7.73869 7.69273 7.2889 6.57725 7.09999 6.13645C6.92007 5.70465 6.74015 5.75863 6.59622 5.74963C6.47028 5.74963 6.32634 5.74063 6.17342 5.74063Z" fill="white"/>
</svg>
