<svg width="36" height="37" viewBox="0 0 36 37" fill="none" xmlns="http://www.w3.org/2000/svg">
<path d="M19.7581 25.2038H16.6102C14.3832 25.2038 12.5581 23.3285 12.5581 21.0178C12.5581 20.3313 13.1274 19.762 13.8139 19.762C14.5004 19.762 15.0697 20.3313 15.0697 21.0178C15.0697 21.9387 15.7562 22.6922 16.6102 22.6922H19.7581C20.4111 22.6922 20.9302 22.1062 20.9302 21.3862C20.9302 20.482 20.679 20.348 20.1097 20.1471L15.0697 18.389C13.9981 18.0206 12.5581 17.2336 12.5581 14.7722C12.5581 12.6792 14.2158 10.9546 16.2418 10.9546H19.3897C21.6167 10.9546 23.4418 12.8299 23.4418 15.1406C23.4418 15.8271 22.8725 16.3964 22.186 16.3964C21.4995 16.3964 20.9302 15.8271 20.9302 15.1406C20.9302 14.2197 20.2437 13.4662 19.3897 13.4662H16.2418C15.5888 13.4662 15.0697 14.0523 15.0697 14.7722C15.0697 15.6764 15.3209 15.8104 15.8902 16.0113L20.9302 17.7694C22.0018 18.1378 23.4418 18.9248 23.4418 21.3862C23.4418 23.4959 21.7842 25.2038 19.7581 25.2038Z" fill="#FAC016"/>
<path d="M18 26.8783C17.3134 26.8783 16.7441 26.309 16.7441 25.6225V10.5527C16.7441 9.86618 17.3134 9.29688 18 9.29688C18.6865 9.29688 19.2558 9.86618 19.2558 10.5527V25.6225C19.2558 26.309 18.6865 26.8783 18 26.8783Z" fill="#FAC016"/>
<path d="M18 36.0874C8.0707 36.0874 0 28.0167 0 18.0874C0 8.1581 8.0707 0.0874023 18 0.0874023C18.6865 0.0874023 19.2558 0.656705 19.2558 1.34322C19.2558 2.02973 18.6865 2.59903 18 2.59903C9.46047 2.59903 2.51163 9.54787 2.51163 18.0874C2.51163 26.6269 9.46047 33.5758 18 33.5758C26.5395 33.5758 33.4884 26.6269 33.4884 18.0874C33.4884 17.4009 34.0577 16.8316 34.7442 16.8316C35.4307 16.8316 36 17.4009 36 18.0874C36 28.0167 27.9293 36.0874 18 36.0874Z" fill="#FAC016"/>
<path d="M33.0697 10.971H26.372C25.6855 10.971 25.1162 10.4017 25.1162 9.71521V3.01753C25.1162 2.33102 25.6855 1.76172 26.372 1.76172C27.0585 1.76172 27.6278 2.33102 27.6278 3.01753V8.45939H33.0697C33.7562 8.45939 34.3255 9.0287 34.3255 9.71521C34.3255 10.4017 33.7562 10.971 33.0697 10.971Z" fill="#FAC016"/>
<path d="M26.3713 10.9708C26.0531 10.9708 25.735 10.8536 25.4838 10.6025C24.9982 10.1169 24.9982 9.31317 25.4838 8.82759L33.8559 0.455495C34.3415 -0.0300867 35.1452 -0.0300867 35.6308 0.455495C36.1164 0.941076 36.1164 1.7448 35.6308 2.23038L27.2587 10.6025C27.0075 10.8536 26.6894 10.9708 26.3713 10.9708Z" fill="#FAC016"/>
</svg>
