<svg width="36" height="37" viewBox="0 0 36 37" fill="none" xmlns="http://www.w3.org/2000/svg">
<path d="M28.0856 11.2547C28.0353 11.2547 28.0018 11.2547 27.9515 11.2547H27.8676C24.6986 11.1541 22.3345 8.70607 22.3345 5.68797C22.3345 2.60281 24.8496 0.104492 27.9179 0.104492C30.9863 0.104492 33.5014 2.61957 33.5014 5.68797C33.4847 8.72283 31.1205 11.1708 28.1024 11.2714C28.1024 11.2547 28.1024 11.2547 28.0856 11.2547ZM27.9179 2.60282C26.2245 2.60282 24.8496 3.97773 24.8496 5.67122C24.8496 7.33117 26.1406 8.67255 27.8006 8.73962C27.8173 8.72285 27.9515 8.72285 28.1024 8.73962C29.7288 8.65578 30.9863 7.3144 31.0031 5.67122C31.0031 3.97773 29.6282 2.60282 27.9179 2.60282Z" fill="#FAC016"/>
<path d="M28.1027 23.6119C27.4488 23.6119 26.7948 23.5616 26.1409 23.4442C25.4535 23.3268 25.0008 22.6729 25.1181 21.9855C25.2355 21.298 25.8894 20.8453 26.5769 20.9627C28.6392 21.3148 30.819 20.9293 32.2777 19.9568C33.0658 19.437 33.485 18.7829 33.485 18.129C33.485 17.4751 33.049 16.8379 32.2777 16.3181C30.819 15.3456 28.6057 14.96 26.5266 15.3289C25.8391 15.463 25.1852 14.9935 25.0678 14.3062C24.9505 13.6187 25.4032 12.9648 26.0906 12.8474C28.8237 12.3612 31.6573 12.8809 33.6694 14.2223C35.1449 15.2115 36 16.62 36 18.129C36 19.6213 35.1617 21.0467 33.6694 22.0527C32.1436 23.0587 30.1651 23.6119 28.1027 23.6119Z" fill="#FAC016"/>
<path d="M7.91475 11.2544C7.89798 11.2544 7.88122 11.2544 7.88122 11.2544C4.86312 11.1538 2.49894 8.70574 2.48218 5.68765C2.48218 2.60248 4.99726 0.0874023 8.06565 0.0874023C11.1341 0.0874023 13.6491 2.60248 13.6491 5.67088C13.6491 8.70574 11.285 11.1538 8.26686 11.2544L7.91475 9.99682L8.03212 11.2544C7.99859 11.2544 7.94828 11.2544 7.91475 11.2544ZM8.08242 8.73928C8.18302 8.73928 8.26686 8.73928 8.36746 8.75604C9.85974 8.68898 11.1676 7.3476 11.1676 5.68765C11.1676 3.99416 9.79268 2.61923 8.09919 2.61923C6.4057 2.61923 5.03079 3.99416 5.03079 5.68765C5.03079 7.33083 6.3051 8.65544 7.93152 8.75604C7.94828 8.73928 8.01535 8.73928 8.08242 8.73928Z" fill="#FAC016"/>
<path d="M7.89735 23.6119C5.83498 23.6119 3.85646 23.0587 2.33064 22.0527C0.855127 21.0634 0 19.638 0 18.129C0 16.6367 0.855127 15.2115 2.33064 14.2223C4.3427 12.8809 7.17636 12.3612 9.90941 12.8474C10.5969 12.9648 11.0496 13.6187 10.9322 14.3062C10.8148 14.9935 10.1609 15.463 9.47347 15.3289C7.39433 14.96 5.19783 15.3456 3.72232 16.3181C2.93426 16.8379 2.51508 17.4751 2.51508 18.129C2.51508 18.7829 2.95103 19.437 3.72232 19.9568C5.18106 20.9293 7.3608 21.3148 9.42316 20.9627C10.1106 20.8453 10.7645 21.3148 10.8819 21.9855C10.9993 22.6729 10.5466 23.3268 9.85911 23.4442C9.20519 23.5616 8.55127 23.6119 7.89735 23.6119Z" fill="#FAC016"/>
<path d="M18.0253 23.7796C17.975 23.7796 17.9415 23.7796 17.8912 23.7796H17.8073C14.6383 23.679 12.2742 21.231 12.2742 18.2129C12.2742 15.1277 14.7892 12.6294 17.8576 12.6294C20.926 12.6294 23.4411 15.1445 23.4411 18.2129C23.4243 21.2478 21.0602 23.6958 18.0421 23.7964C18.0421 23.7796 18.0421 23.7796 18.0253 23.7796ZM17.8576 15.1277C16.1641 15.1277 14.7892 16.5026 14.7892 18.1961C14.7892 19.8561 16.0803 21.1975 17.7403 21.2645C17.757 21.2478 17.8912 21.2478 18.0421 21.2645C19.6685 21.1807 20.926 19.8393 20.9428 18.1961C20.9428 16.5194 19.5679 15.1277 17.8576 15.1277Z" fill="#FAC016"/>
<path d="M18.0235 36.1542C16.0114 36.1542 13.9994 35.6344 12.44 34.5781C10.9645 33.5888 10.1094 32.1804 10.1094 30.6714C10.1094 29.1791 10.9477 27.7371 12.44 26.7478C15.5755 24.6687 20.4883 24.6687 23.607 26.7478C25.0825 27.7371 25.9376 29.1455 25.9376 30.6546C25.9376 32.1469 25.0992 33.5888 23.607 34.5781C22.0476 35.6177 20.0356 36.1542 18.0235 36.1542ZM13.8317 28.8605C13.0436 29.3803 12.6245 30.0342 12.6245 30.6881C12.6245 31.342 13.0604 31.9792 13.8317 32.499C16.0953 34.0248 19.935 34.0248 22.1985 32.499C22.9866 31.9792 23.4058 31.3253 23.4058 30.6714C23.4058 30.0174 22.9698 29.3803 22.1985 28.8605C19.9517 27.3347 16.112 27.3514 13.8317 28.8605Z" fill="#FAC016"/>
</svg>
