<svg width="36" height="37" viewBox="0 0 36 37" fill="none" xmlns="http://www.w3.org/2000/svg">
<path d="M19.6744 22.6921H1.25581C0.569302 22.6921 0 22.1228 0 21.4362V8.04089C0 3.65391 3.56651 0.0874023 7.95349 0.0874023H23.0233C23.7098 0.0874023 24.2791 0.656705 24.2791 1.34322V18.0874C24.2791 20.6325 22.2195 22.6921 19.6744 22.6921ZM2.51163 20.1804H19.6744C20.8298 20.1804 21.7674 19.2428 21.7674 18.0874V2.59903H7.95349C4.95628 2.59903 2.51163 5.04368 2.51163 8.04089V20.1804Z" fill="#FAC016"/>
<path d="M29.7209 32.7387H28.0465C27.36 32.7387 26.7907 32.1694 26.7907 31.4829C26.7907 30.3276 25.853 29.3899 24.6977 29.3899C23.5423 29.3899 22.6047 30.3276 22.6047 31.4829C22.6047 32.1694 22.0353 32.7387 21.3488 32.7387H14.6512C13.9647 32.7387 13.3953 32.1694 13.3953 31.4829C13.3953 30.3276 12.4577 29.3899 11.3023 29.3899C10.147 29.3899 9.2093 30.3276 9.2093 31.4829C9.2093 32.1694 8.64 32.7387 7.95349 32.7387H6.27907C2.81302 32.7387 0 29.9257 0 26.4597V21.4364C0 20.7499 0.569302 20.1806 1.25581 20.1806H19.6744C20.8298 20.1806 21.7674 19.2429 21.7674 18.0876V6.36665C21.7674 5.68014 22.3367 5.11084 23.0233 5.11084H26.1042C27.7619 5.11084 29.2856 5.9983 30.106 7.4383L32.9693 12.4448C33.187 12.8299 33.187 13.3155 32.9693 13.7006C32.7516 14.0857 32.333 14.3201 31.8809 14.3201H29.7209C29.4865 14.3201 29.3023 14.5043 29.3023 14.7387V19.762C29.3023 19.9964 29.4865 20.1806 29.7209 20.1806H34.7442C35.4307 20.1806 36 20.7499 36 21.4364V26.4597C36 29.9257 33.187 32.7387 29.7209 32.7387ZM29.1349 30.2271H29.7209C31.7972 30.2271 33.4884 28.536 33.4884 26.4597V22.6922H29.7209C28.1135 22.6922 26.7907 21.3694 26.7907 19.762V14.7387C26.7907 13.1313 28.0967 11.8085 29.7209 11.8085L27.9293 8.67735C27.5609 8.02433 26.8577 7.62247 26.1042 7.62247H24.2791V18.0876C24.2791 20.6327 22.2195 22.6922 19.6744 22.6922H2.51163V26.4597C2.51163 28.536 4.20279 30.2271 6.27907 30.2271H6.86513C7.41769 28.3015 9.19256 26.8783 11.3023 26.8783C13.4121 26.8783 15.187 28.3015 15.7395 30.2271H20.2772C20.8298 28.3015 22.6047 26.8783 24.7144 26.8783C26.8242 26.8783 28.5823 28.3015 29.1349 30.2271Z" fill="#FAC016"/>
<path d="M11.3024 36.0877C8.75729 36.0877 6.69775 34.0282 6.69775 31.4831C6.69775 28.938 8.75729 26.8784 11.3024 26.8784C13.8475 26.8784 15.9071 28.938 15.9071 31.4831C15.9071 34.0282 13.8475 36.0877 11.3024 36.0877ZM11.3024 29.39C10.1471 29.39 9.20938 30.3277 9.20938 31.4831C9.20938 32.6384 10.1471 33.5761 11.3024 33.5761C12.4578 33.5761 13.3954 32.6384 13.3954 31.4831C13.3954 30.3277 12.4578 29.39 11.3024 29.39Z" fill="#FAC016"/>
<path d="M24.6977 36.0877C22.1526 36.0877 20.093 34.0282 20.093 31.4831C20.093 28.938 22.1526 26.8784 24.6977 26.8784C27.2428 26.8784 29.3023 28.938 29.3023 31.4831C29.3023 34.0282 27.2428 36.0877 24.6977 36.0877ZM24.6977 29.39C23.5423 29.39 22.6046 30.3277 22.6046 31.4831C22.6046 32.6384 23.5423 33.5761 24.6977 33.5761C25.853 33.5761 26.7907 32.6384 26.7907 31.4831C26.7907 30.3277 25.853 29.39 24.6977 29.39Z" fill="#FAC016"/>
<path d="M34.7443 22.6923H29.721C28.1136 22.6923 26.7908 21.3695 26.7908 19.7621V14.7388C26.7908 13.1314 28.1136 11.8086 29.721 11.8086H31.881C32.3331 11.8086 32.7517 12.043 32.9694 12.4449L35.8326 17.4681C35.9331 17.6523 36.0001 17.87 36.0001 18.0877V21.4365C36.0001 22.123 35.4308 22.6923 34.7443 22.6923ZM29.721 14.3202C29.4866 14.3202 29.3024 14.5044 29.3024 14.7388V19.7621C29.3024 19.9965 29.4866 20.1807 29.721 20.1807H33.4884V18.4225L31.1443 14.3202H29.721Z" fill="#FAC016"/>
</svg>
